<svg width="25" height="24" viewBox="0 0 25 24" fill="none" xmlns="http://www.w3.org/2000/svg">
<g clip-path="url(#clip0_502_2251)">
<path d="M4.31976 16.1199L6.64976 15.1199C6.88221 14.9598 7.07814 14.7522 7.22464 14.5109C7.37114 14.2696 7.4649 14 7.49976 13.7199L7.86976 11.5199L11.0198 9.26991C11.1629 9.18284 11.2818 9.06121 11.3657 8.91619C11.4496 8.77116 11.4957 8.60739 11.4998 8.43991V7.85991C11.512 7.69072 11.4809 7.52121 11.4096 7.36731C11.3383 7.21341 11.2289 7.0802 11.0919 6.98019C10.9549 6.88018 10.7947 6.81667 10.6264 6.79563C10.4581 6.77459 10.2872 6.79671 10.1298 6.85991L5.90976 8.39991C4.85551 8.77267 3.87667 9.33152 3.01976 10.0499L1.24976 11.5199" stroke="white" stroke-width="1.5" stroke-linecap="round" stroke-linejoin="round"/>
<path d="M1.24976 21.7499L3.54976 20.0699C4.04034 19.702 4.63652 19.5021 5.24976 19.4999H12.9498C13.5546 19.501 14.1457 19.3191 14.6453 18.9783C15.145 18.6374 15.53 18.1535 15.7498 17.5899L17.1498 13.9999" stroke="white" stroke-width="1.5" stroke-linecap="round" stroke-linejoin="round"/>
<path d="M14.3298 9.58991C14.5458 9.87581 14.8277 10.1052 15.1516 10.2584C15.4755 10.4117 15.8317 10.4842 16.1898 10.4699C17.3298 10.4699 18.2498 9.77991 18.2498 8.91991C18.2498 8.05991 17.3298 7.37991 16.1898 7.37991C15.0498 7.37991 14.1198 6.67991 14.1198 5.82991C14.1198 4.97991 15.0498 4.27991 16.1898 4.27991C16.5478 4.26559 16.904 4.33816 17.2279 4.4914C17.5518 4.64464 17.8338 4.87401 18.0498 5.15991" stroke="white" stroke-width="1.5" stroke-linecap="round" stroke-linejoin="round"/>
<path d="M16.1898 10.4699V11.4999" stroke="white" stroke-width="1.5" stroke-linecap="round" stroke-linejoin="round"/>
<path d="M16.1898 3.24994V4.27994" stroke="white" stroke-width="1.5" stroke-linecap="round" stroke-linejoin="round"/>
<path d="M19.7498 2.24994H22.2498C22.6476 2.24994 23.0291 2.40797 23.3104 2.68928C23.5917 2.97058 23.7498 3.35211 23.7498 3.74994V12.4999C23.7498 12.8978 23.5917 13.2793 23.3104 13.5606C23.0291 13.8419 22.6476 13.9999 22.2498 13.9999H10.9998" stroke="white" stroke-width="1.5" stroke-linecap="round" stroke-linejoin="round"/>
<path d="M5.74976 5.24994V3.74994C5.74976 3.35211 5.90779 2.97058 6.1891 2.68928C6.4704 2.40797 6.85193 2.24994 7.24976 2.24994H12.9998" stroke="white" stroke-width="1.5" stroke-linecap="round" stroke-linejoin="round"/>
</g>
<defs>
<clipPath id="clip0_502_2251">
<rect width="24" height="24" fill="white" transform="translate(0.499756 -6.10352e-05)"/>
</clipPath>
</defs>
</svg>
