<svg width="24" height="25" viewBox="0 0 24 25" fill="none" xmlns="http://www.w3.org/2000/svg">
<path fill-rule="evenodd" clip-rule="evenodd" d="M9.68695 19.5078C10.2115 19.3375 10.7768 19.6182 10.9498 20.1348C10.9699 20.195 11.0196 20.2705 11.1178 20.335C11.2173 20.4003 11.3514 20.4431 11.5 20.4431C11.6486 20.4431 11.7828 20.4003 11.8822 20.335C11.9804 20.2705 12.0302 20.195 12.0503 20.1348C12.2232 19.6182 12.7886 19.3375 13.3131 19.5078C13.8376 19.6781 14.1227 20.2349 13.9498 20.7515C13.7796 21.2598 13.4342 21.6833 12.9916 21.9739C12.5502 22.2637 12.027 22.4128 11.5 22.4128C10.973 22.4128 10.4498 22.2637 10.0084 21.9739C9.56586 21.6833 9.22044 21.2598 9.0503 20.7515C8.87739 20.2349 9.16243 19.6781 9.68695 19.5078Z" fill="white"/>
<path fill-rule="evenodd" clip-rule="evenodd" d="M12 2.71558C12.5523 2.71558 13 3.15651 13 3.70042V5.67012C13 6.21404 12.5523 6.65497 12 6.65497C11.4477 6.65497 11 6.21404 11 5.67012V3.70042C11 3.15651 11.4477 2.71558 12 2.71558Z" fill="white"/>
<path fill-rule="evenodd" clip-rule="evenodd" d="M12 6.655C10.7116 6.655 9.47992 7.14899 8.575 8.022C7.67078 8.89435 7.16668 10.0731 7.16668 11.2979C7.16668 13.7525 6.86551 15.398 6.54084 16.4595C6.53632 16.4743 6.53179 16.4889 6.52726 16.5035H17.4099C17.0988 15.4751 16.8333 13.8543 16.8333 11.2979C16.8333 10.0731 16.3292 8.89435 15.425 8.022C14.5201 7.14899 13.2885 6.655 12 6.655ZM12 4.6853C10.1943 4.6853 8.45845 5.37715 7.17544 6.61493C5.89173 7.85339 5.16668 9.53747 5.16668 11.2979C5.16668 13.596 4.88451 15.0457 4.62585 15.8913C4.49661 16.3138 4.37318 16.5858 4.29337 16.7383C4.25343 16.8147 4.22422 16.8615 4.21037 16.8826C4.20707 16.8876 4.20463 16.8912 4.20311 16.8934C3.97693 17.1871 3.93595 17.5817 4.09881 17.9152C4.26538 18.2563 4.61569 18.4732 5.00001 18.4732H19C19.4262 18.4732 19.8056 18.2071 19.945 17.8104C20.0743 17.4426 19.9709 17.0376 19.6881 16.7737C19.6819 16.7655 19.6718 16.7517 19.6585 16.7314C19.6031 16.6466 19.4916 16.4481 19.368 16.0722C19.119 15.3151 18.8333 13.8777 18.8333 11.2979C18.8333 9.53747 18.1083 7.85339 16.8246 6.61493C15.5416 5.37715 13.8057 4.6853 12 4.6853ZM4.21691 16.8759C4.21692 16.8758 4.21694 16.8758 4.21696 16.8758C4.21758 16.875 4.21821 16.8743 4.21883 16.8735L5.00001 17.4883C4.21883 16.8735 4.21835 16.8741 4.21786 16.8747L4.21696 16.8758L4.21692 16.8758L4.21691 16.8759Z" fill="white"/>
</svg>
